<svg aria-hidden="true" style="position: absolute; width: 0; height: 0; overflow: hidden;" version="1.1" xmlns="http://www.w3.org/2000/svg" xmlns:xlink="http://www.w3.org/1999/xlink">
<defs>
<symbol id="icon-megaphone" viewBox="0 0 40 32">
<path d="M39.498 0c-0.277 0-0.498 0.224-0.498 0.5v31c0 0.276 0.221 0.5 0.498 0.5s0.5-0.224 0.5-0.5v-31c0-0.276-0.224-0.5-0.5-0.5zM37.717 1.204c-0.17-0.083-0.376-0.062-0.526 0.055l-0.565 0.445c-2.978 2.355-7.959 6.296-18.126 6.296h-13.869c-1.451 0-2.631 1.2-2.631 2.674v10.714c0 1.44 1.18 2.612 2.631 2.612h3.394c0.088 1.125 0.502 3.794 2.454 5.761 1.474 1.486 3.5 2.239 6.021 2.239 0.276 0 0.5-0.224 0.5-0.5s-0.224-0.5-0.5-0.5c-2.242 0-4.026-0.652-5.306-1.938-1.667-1.676-2.067-4.024-2.163-5.062h2.995c0.085 0.682 0.36 1.881 1.274 2.802 0.789 0.795 1.866 1.198 3.2 1.198 0.276 0 0.5-0.224 0.5-0.5s-0.224-0.5-0.5-0.5c-1.055 0-1.891-0.302-2.484-0.896-0.657-0.659-0.894-1.546-0.981-2.104h5.396c10.216 0 15.237 3.963 18.237 6.331l0.522 0.411c0.089 0.070 0.198 0.105 0.307 0.105 0.075 0 0.15-0.017 0.219-0.051 0.172-0.084 0.281-0.258 0.281-0.449v-28.694c0.001-0.191-0.108-0.365-0.28-0.449zM3 21.388v-10.714c0-0.923 0.731-1.674 1.631-1.674h3.369v14h-3.369c-0.915 0-1.631-0.708-1.631-1.612zM37 29.317c-3.134-2.466-8.328-6.317-18.568-6.317h-5.797c-0.047-0.015-0.095-0.030-0.148-0.031-0.001 0-0.001 0-0.002 0-0.054 0-0.105 0.015-0.154 0.031h-3.331v-14h9.5c10.237 0 15.394-3.864 18.5-6.316v26.633zM0.5 21.857c0.276 0 0.5-0.224 0.5-0.5v-10.714c0-0.276-0.224-0.5-0.5-0.5s-0.5 0.223-0.5 0.5v10.714c0 0.276 0.224 0.5 0.5 0.5z"></path>
</symbol>
<symbol id="icon-news" viewBox="0 0 32 32">
<path d="M29 0h-22c-1.657 0-3 1.342-3 3v2h-1c-1.657 0-3 1.342-3 3v20c0 2.209 1.791 4 4 4h24c2.209 0 4-1.791 4-4v-25c0-1.658-1.344-3-3-3zM30 28c0 1.102-0.898 2-2 2h-24c-1.103 0-2-0.898-2-2v-20c0-0.552 0.448-1 1-1h1v20c0 0.553 0.447 1 1 1s1-0.447 1-1v-24c0-0.552 0.448-1 1-1h22c0.551 0 1 0.448 1 1v25zM19.498 13.005c-0.275 0-0.5-0.224-0.5-0.5s0.225-0.5 0.5-0.5h8c0.277 0 0.5 0.224 0.5 0.5s-0.223 0.5-0.5 0.5h-8zM19.498 10.005c-0.275 0-0.5-0.224-0.5-0.5s0.225-0.5 0.5-0.5h8c0.277 0 0.5 0.224 0.5 0.5s-0.223 0.5-0.5 0.5h-8zM19.498 7.005c-0.275 0-0.5-0.224-0.5-0.5s0.225-0.5 0.5-0.5h8c0.277 0 0.5 0.224 0.5 0.5s-0.223 0.5-0.5 0.5h-8zM16.5 27.004c0.276 0 0.5 0.225 0.5 0.5 0 0.277-0.225 0.5-0.5 0.5h-8c-0.276 0-0.5-0.223-0.5-0.5 0-0.275 0.224-0.5 0.5-0.5h8zM16.5 24.004c0.276 0 0.5 0.225 0.5 0.5 0 0.277-0.225 0.5-0.5 0.5h-8c-0.276 0-0.5-0.223-0.5-0.5 0-0.275 0.224-0.5 0.5-0.5h8zM16.5 21.004c0.276 0 0.5 0.225 0.5 0.5 0 0.277-0.225 0.5-0.5 0.5h-8c-0.276 0-0.5-0.223-0.5-0.5 0-0.275 0.224-0.5 0.5-0.5h8zM27.5 27.004c0.275 0 0.5 0.225 0.5 0.5 0 0.277-0.225 0.5-0.5 0.5h-8c-0.277 0-0.5-0.223-0.5-0.5 0-0.275 0.223-0.5 0.5-0.5h8zM27.5 24.004c0.275 0 0.5 0.225 0.5 0.5 0 0.277-0.225 0.5-0.5 0.5h-8c-0.277 0-0.5-0.223-0.5-0.5 0-0.275 0.223-0.5 0.5-0.5h8zM27.5 21.004c0.275 0 0.5 0.225 0.5 0.5 0 0.277-0.225 0.5-0.5 0.5h-8c-0.277 0-0.5-0.223-0.5-0.5 0-0.275 0.223-0.5 0.5-0.5h8zM27.5 15.004c0.275 0 0.5 0.224 0.5 0.5s-0.225 0.5-0.5 0.5h-19c-0.276 0-0.5-0.224-0.5-0.5s0.224-0.5 0.5-0.5h19zM27.5 18.004c0.275 0 0.5 0.225 0.5 0.5 0 0.277-0.225 0.5-0.5 0.5h-19c-0.276 0-0.5-0.223-0.5-0.5 0-0.275 0.224-0.5 0.5-0.5h19zM9 13h7c0.553 0 1-0.447 1-1v-6.996c0-0.553-0.447-1-1-1h-7c-0.553 0-1 0.447-1 1v6.996c0 0.552 0.447 1 1 1zM10 6h5v5h-5v-5z"></path>
</symbol>
<symbol id="icon-params" viewBox="0 0 32 32">
<path d="M8 6.021v-3.021c0-1.654-1.346-3-3-3s-3 1.346-3 3v3.021c-1.208 0.915-2 2.348-2 3.979s0.792 3.064 2 3.977v15.023c0 1.654 1.346 3 3 3s3-1.346 3-3v-15.023c1.208-0.912 2-2.346 2-3.977s-0.792-3.064-2-3.979zM4 3c0-0.553 0.447-1 1-1s1 0.447 1 1v2.1c-0.323-0.065-0.657-0.1-1-0.1s-0.677 0.035-1 0.1v-2.1zM6 29c0 0.553-0.447 1-1 1s-1-0.447-1-1v-14.102c0.323 0.067 0.657 0.102 1 0.102s0.677-0.035 1-0.102v14.102zM7.865 10.84c-0.016 0.053-0.030 0.105-0.049 0.158-0.095 0.264-0.217 0.514-0.378 0.736-0.004 0.006-0.010 0.010-0.014 0.016-0.174 0.238-0.381 0.449-0.616 0.627-0.004 0.004-0.007 0.006-0.010 0.008-0.241 0.182-0.51 0.328-0.799 0.43-0.313 0.113-0.646 0.185-0.999 0.185s-0.686-0.072-1-0.186c-0.289-0.102-0.558-0.248-0.799-0.43-0.003-0.002-0.006-0.004-0.010-0.008-0.235-0.178-0.442-0.389-0.616-0.627-0.004-0.006-0.010-0.010-0.014-0.016-0.161-0.223-0.283-0.473-0.378-0.736-0.019-0.053-0.033-0.105-0.049-0.158-0.079-0.267-0.134-0.546-0.134-0.839 0-0.295 0.055-0.574 0.135-0.842 0.016-0.053 0.030-0.105 0.049-0.156 0.094-0.264 0.216-0.514 0.378-0.738 0.004-0.006 0.010-0.010 0.014-0.016 0.174-0.236 0.381-0.449 0.616-0.627 0.004-0.002 0.007-0.006 0.010-0.008 0.24-0.179 0.509-0.326 0.798-0.429 0.314-0.112 0.647-0.184 1-0.184s0.686 0.072 1 0.184c0.289 0.104 0.558 0.25 0.799 0.43 0.003 0.002 0.006 0.006 0.010 0.008 0.235 0.178 0.442 0.391 0.616 0.627 0.004 0.006 0.010 0.010 0.014 0.016 0.161 0.223 0.283 0.473 0.377 0.737 0.019 0.051 0.034 0.103 0.049 0.156 0.080 0.268 0.135 0.547 0.135 0.842 0 0.293-0.055 0.572-0.135 0.84zM30 6.021v-3.021c0-1.654-1.346-3-3-3s-3 1.346-3 3v3.021c-1.209 0.915-2 2.348-2 3.979s0.791 3.064 2 3.977v15.023c0 1.654 1.346 3 3 3s3-1.346 3-3v-15.023c1.207-0.912 2-2.346 2-3.977s-0.793-3.064-2-3.979zM26 3c0-0.553 0.447-1 1-1s1 0.447 1 1v2.1c-0.324-0.065-0.658-0.1-1-0.1-0.344 0-0.678 0.035-1 0.1v-2.1zM28 29c0 0.553-0.447 1-1 1s-1-0.447-1-1v-14.102c0.322 0.067 0.656 0.102 1 0.102 0.342 0 0.676-0.035 1-0.102v14.102zM29.865 10.84c-0.016 0.053-0.031 0.105-0.049 0.158-0.096 0.264-0.217 0.514-0.379 0.736-0.004 0.006-0.010 0.010-0.014 0.016-0.174 0.238-0.381 0.449-0.615 0.627-0.004 0.004-0.008 0.006-0.010 0.008-0.242 0.182-0.51 0.328-0.799 0.43-0.313 0.113-0.647 0.185-0.999 0.185-0.354 0-0.686-0.072-1-0.186-0.289-0.102-0.559-0.248-0.799-0.43-0.004-0.002-0.006-0.004-0.010-0.008-0.236-0.178-0.443-0.389-0.617-0.627-0.004-0.006-0.010-0.010-0.014-0.016-0.16-0.223-0.283-0.473-0.377-0.736-0.020-0.053-0.033-0.105-0.049-0.158-0.079-0.267-0.134-0.546-0.134-0.839 0-0.295 0.055-0.574 0.135-0.842 0.016-0.053 0.029-0.105 0.049-0.156 0.094-0.264 0.217-0.514 0.377-0.738 0.004-0.006 0.010-0.010 0.014-0.016 0.174-0.236 0.381-0.449 0.617-0.627 0.004-0.002 0.006-0.006 0.010-0.008 0.24-0.18 0.51-0.326 0.799-0.43 0.313-0.111 0.645-0.183 0.999-0.183 0.352 0 0.686 0.072 1 0.184 0.289 0.104 0.557 0.25 0.799 0.43 0.002 0.002 0.006 0.006 0.010 0.008 0.234 0.178 0.441 0.391 0.615 0.627 0.004 0.006 0.010 0.010 0.014 0.016 0.162 0.225 0.283 0.475 0.379 0.738 0.018 0.051 0.033 0.104 0.049 0.156 0.079 0.267 0.134 0.546 0.134 0.841 0 0.293-0.055 0.572-0.135 0.84zM19 18.021v-15.021c0-1.654-1.346-3-3-3s-3 1.346-3 3v15.021c-1.208 0.914-2 2.348-2 3.979s0.792 3.064 2 3.977v3.023c0 1.654 1.346 3 3 3s3-1.346 3-3v-3.023c1.207-0.912 2-2.346 2-3.977s-0.793-3.064-2-3.979zM15 3c0-0.553 0.447-1 1-1s1 0.447 1 1v14.1c-0.324-0.064-0.658-0.1-1-0.1-0.343 0-0.677 0.035-1 0.1v-14.1zM17 29c0 0.553-0.447 1-1 1s-1-0.447-1-1v-2.102c0.323 0.067 0.657 0.102 1 0.102 0.342 0 0.676-0.035 1-0.102v2.102zM18.865 22.84c-0.016 0.053-0.031 0.105-0.049 0.158-0.096 0.264-0.217 0.514-0.379 0.736-0.004 0.006-0.010 0.010-0.014 0.016-0.174 0.238-0.381 0.449-0.615 0.627-0.004 0.004-0.008 0.006-0.010 0.008-0.242 0.182-0.51 0.328-0.799 0.43-0.313 0.113-0.647 0.185-0.999 0.185s-0.686-0.072-1-0.186c-0.289-0.102-0.558-0.248-0.799-0.43-0.003-0.002-0.006-0.004-0.010-0.008-0.235-0.178-0.442-0.389-0.616-0.627-0.004-0.006-0.010-0.010-0.014-0.016-0.161-0.223-0.283-0.473-0.378-0.736-0.019-0.053-0.033-0.105-0.049-0.158-0.079-0.267-0.134-0.546-0.134-0.839 0-0.295 0.055-0.574 0.135-0.842 0.016-0.053 0.030-0.105 0.049-0.156 0.095-0.264 0.217-0.514 0.378-0.738 0.004-0.006 0.010-0.010 0.014-0.016 0.174-0.236 0.381-0.449 0.616-0.627 0.004-0.002 0.007-0.006 0.010-0.008 0.241-0.18 0.51-0.326 0.799-0.43 0.313-0.111 0.646-0.183 0.999-0.183 0.352 0 0.686 0.072 1 0.184 0.289 0.104 0.557 0.25 0.799 0.43 0.002 0.002 0.006 0.006 0.010 0.008 0.234 0.178 0.441 0.391 0.615 0.627 0.004 0.006 0.010 0.010 0.014 0.016 0.162 0.225 0.283 0.475 0.379 0.738 0.018 0.051 0.033 0.104 0.049 0.156 0.079 0.267 0.134 0.546 0.134 0.841 0 0.293-0.055 0.572-0.135 0.84z"></path>
</symbol>
<symbol id="icon-world" viewBox="0 0 32 32">
<path d="M15.5 0c-8.561 0-15.5 6.939-15.5 15.5s6.939 15.5 15.5 15.5 15.5-6.939 15.5-15.5-6.939-15.5-15.5-15.5zM28.975 15h-5.996c-0.055-2.215-0.449-4.331-1.148-6.268 1.35-0.563 2.598-1.312 3.736-2.197 2.023 2.271 3.288 5.22 3.408 8.465zM14.947 28.972c-1.662-1.384-3.056-3.181-4.076-5.268 1.309-0.409 2.696-0.633 4.129-0.679v5.949c-0.018 0-0.035-0.001-0.053-0.002zM16.051 2.028c1.886 1.57 3.425 3.673 4.466 6.126-1.426 0.487-2.941 0.77-4.518 0.82v-6.949c0.019 0.001 0.035 0.002 0.052 0.003zM17.717 2.198c2.76 0.459 5.236 1.748 7.164 3.614-1.047 0.803-2.191 1.483-3.428 1.998-0.91-2.157-2.187-4.064-3.736-5.612zM15 2.025v6.949c-1.577-0.051-3.093-0.333-4.518-0.82 1.041-2.453 2.58-4.556 4.466-6.126 0.018-0.001 0.034-0.002 0.052-0.003zM9.546 7.811c-1.235-0.515-2.38-1.195-3.427-1.998 1.927-1.866 4.404-3.155 7.164-3.614-1.55 1.547-2.826 3.454-3.737 5.612zM10.105 9.076c1.542 0.535 3.185 0.847 4.895 0.899v5.025h-5.979c0.054-2.094 0.425-4.095 1.084-5.924zM15 16v6.025c-1.577 0.048-3.102 0.306-4.539 0.769-0.866-2.062-1.377-4.359-1.44-6.794h5.979zM13.283 28.802c-2.473-0.411-4.719-1.488-6.545-3.052 0.985-0.683 2.050-1.261 3.188-1.7 0.872 1.808 2.013 3.413 3.357 4.752zM16 28.975v-5.949c1.432 0.046 2.82 0.27 4.129 0.679-1.021 2.087-2.414 3.884-4.076 5.268-0.017 0-0.035 0.001-0.053 0.002zM21.074 24.050c1.137 0.439 2.201 1.018 3.188 1.7-1.826 1.563-4.072 2.641-6.545 3.052 1.344-1.339 2.484-2.944 3.357-4.752zM20.539 22.794c-1.438-0.463-2.963-0.721-4.539-0.769v-6.025h5.979c-0.063 2.435-0.575 4.732-1.44 6.794zM16 15v-5.025c1.709-0.052 3.352-0.363 4.895-0.898 0.658 1.829 1.029 3.83 1.084 5.924h-5.979zM5.434 6.535c1.138 0.885 2.386 1.634 3.735 2.197-0.699 1.937-1.093 4.053-1.148 6.268h-5.996c0.12-3.245 1.385-6.194 3.409-8.465zM2.025 16h5.996c0.062 2.555 0.596 4.968 1.503 7.137-1.267 0.494-2.448 1.152-3.538 1.931-2.348-2.337-3.83-5.532-3.961-9.068zM25.014 25.067c-1.090-0.778-2.271-1.437-3.539-1.931 0.908-2.169 1.441-4.582 1.504-7.137h5.996c-0.131 3.537-1.614 6.732-3.961 9.068z"></path>
</symbol>
<symbol id="icon-grid" viewBox="0 0 16 16">
<path d="M6 9h-5c-0.553 0-1 0.447-1 1v5c0 0.553 0.447 1 1 1h5c0.553 0 1-0.447 1-1v-5c0-0.553-0.447-1-1-1zM5 14h-3v-3h3v3zM6 0h-5c-0.553 0-1 0.447-1 1v5c0 0.553 0.447 1 1 1h5c0.553 0 1-0.447 1-1v-5c0-0.553-0.447-1-1-1zM5 5h-3v-3h3v3zM15 9h-5c-0.553 0-1 0.447-1 1v5c0 0.553 0.447 1 1 1h5c0.553 0 1-0.447 1-1v-5c0-0.553-0.447-1-1-1zM14 14h-3v-3h3v3zM15 0h-5c-0.553 0-1 0.447-1 1v5c0 0.553 0.447 1 1 1h5c0.553 0 1-0.447 1-1v-5c0-0.553-0.447-1-1-1zM14 5h-3v-3h3v3z"></path>
</symbol>
<symbol id="icon-pacman" viewBox="0 0 16 16">
<path d="M15.074 2.794c-1.467-1.71-3.644-2.794-6.074-2.794-4.418 0-8 3.582-8 8s3.582 8 8 8c2.43 0 4.607-1.084 6.074-2.794l-5.074-5.206 5.074-5.206zM11 1.884c0.616 0 1.116 0.499 1.116 1.116s-0.499 1.116-1.116 1.116-1.116-0.499-1.116-1.116c0-0.616 0.499-1.116 1.116-1.116z"></path>
</symbol>
<symbol id="icon-bullhorn" viewBox="0 0 16 16">
<path d="M16 6.707c0-3.139-0.919-5.687-2.054-5.707 0.005-0 0.009-0 0.014-0h-1.296c0 0-3.044 2.287-7.425 3.184-0.134 0.708-0.219 1.551-0.219 2.523s0.085 1.816 0.219 2.523c4.382 0.897 7.425 3.184 7.425 3.184h1.296c-0.005 0-0.009-0-0.014-0.001 1.136-0.020 2.054-2.567 2.054-5.707zM13.513 11.551c-0.147 0-0.305-0.152-0.387-0.243-0.197-0.22-0.387-0.562-0.55-0.989-0.363-0.957-0.564-2.239-0.564-3.611s0.2-2.655 0.564-3.611c0.162-0.428 0.353-0.77 0.55-0.99 0.081-0.091 0.24-0.243 0.387-0.243s0.305 0.152 0.387 0.243c0.197 0.22 0.387 0.562 0.55 0.99 0.363 0.957 0.564 2.239 0.564 3.611s-0.2 2.655-0.564 3.611c-0.162 0.428-0.353 0.77-0.55 0.989-0.081 0.091-0.24 0.243-0.387 0.243zM3.935 6.707c0-0.812 0.060-1.6 0.173-2.33-0.74 0.102-1.39 0.161-2.193 0.161-1.048 0-1.048 0-1.048 0l-0.867 1.479v1.378l0.867 1.479c0 0 0 0 1.048 0 0.803 0 1.453 0.059 2.193 0.161-0.113-0.729-0.173-1.518-0.173-2.33zM5.752 10.034l-2-0.383 1.279 5.024c0.066 0.26 0.324 0.391 0.573 0.291l1.852-0.741c0.249-0.1 0.349-0.374 0.222-0.611l-1.926-3.581zM13.513 8.574c-0.057 0-0.118-0.059-0.149-0.094-0.076-0.085-0.149-0.217-0.212-0.381-0.14-0.369-0.217-0.863-0.217-1.392s0.077-1.023 0.217-1.392c0.063-0.165 0.136-0.297 0.212-0.381 0.031-0.035 0.092-0.094 0.149-0.094s0.118 0.059 0.149 0.094c0.076 0.085 0.149 0.217 0.212 0.381 0.14 0.369 0.217 0.863 0.217 1.392s-0.077 1.023-0.217 1.392c-0.063 0.165-0.136 0.297-0.212 0.381-0.031 0.035-0.092 0.094-0.149 0.094z"></path>
</symbol>
<symbol id="icon-laptop" viewBox="0 0 16 16">
<path d="M14 11v-8c0-0.55-0.45-1-1-1h-10c-0.55 0-1 0.45-1 1v8h-2v3h16v-3h-2zM10 13h-4v-1h4v1zM13 11h-10v-7.998c0.001-0.001 0.001-0.001 0.002-0.002h9.996c0.001 0.001 0.001 0.001 0.002 0.002v7.998z"></path>
</symbol>
<symbol id="icon-users" viewBox="0 0 18 16">
<path d="M12 12.041v-0.825c1.102-0.621 2-2.168 2-3.716 0-2.485 0-4.5-3-4.5s-3 2.015-3 4.5c0 1.548 0.898 3.095 2 3.716v0.825c-3.392 0.277-6 1.944-6 3.959h14c0-2.015-2.608-3.682-6-3.959z"></path>
<path d="M5.112 12.427c0.864-0.565 1.939-0.994 3.122-1.256-0.235-0.278-0.449-0.588-0.633-0.922-0.475-0.863-0.726-1.813-0.726-2.748 0-1.344 0-2.614 0.478-3.653 0.464-1.008 1.299-1.633 2.488-1.867-0.264-1.195-0.968-1.98-2.841-1.98-3 0-3 2.015-3 4.5 0 1.548 0.898 3.095 2 3.716v0.825c-3.392 0.277-6 1.944-6 3.959h4.359c0.227-0.202 0.478-0.393 0.753-0.573z"></path>
</symbol>
<symbol id="icon-spinner7" viewBox="0 0 16 16">
<path d="M6.5 14.5c0-0.828 0.672-1.5 1.5-1.5s1.5 0.672 1.5 1.5c0 0.828-0.672 1.5-1.5 1.5s-1.5-0.672-1.5-1.5zM0 8c0-0.828 0.672-1.5 1.5-1.5s1.5 0.672 1.5 1.5c0 0.828-0.672 1.5-1.5 1.5s-1.5-0.672-1.5-1.5zM13 8c0-0.828 0.672-1.5 1.5-1.5s1.5 0.672 1.5 1.5c0 0.828-0.672 1.5-1.5 1.5s-1.5-0.672-1.5-1.5zM1.904 3.404c0-0.828 0.672-1.5 1.5-1.5s1.5 0.672 1.5 1.5c0 0.828-0.672 1.5-1.5 1.5s-1.5-0.672-1.5-1.5zM11.096 12.596c0-0.828 0.672-1.5 1.5-1.5s1.5 0.672 1.5 1.5c0 0.828-0.672 1.5-1.5 1.5s-1.5-0.672-1.5-1.5zM1.904 12.596c0-0.828 0.672-1.5 1.5-1.5s1.5 0.672 1.5 1.5c0 0.828-0.672 1.5-1.5 1.5s-1.5-0.672-1.5-1.5zM11.096 3.404c0-0.828 0.672-1.5 1.5-1.5s1.5 0.672 1.5 1.5c0 0.828-0.672 1.5-1.5 1.5s-1.5-0.672-1.5-1.5z"></path>
</symbol>
<symbol id="icon-aid-kit" viewBox="0 0 16 16">
<path d="M14 4h-3v-2c0-0.55-0.45-1-1-1h-4c-0.55 0-1 0.45-1 1v2h-3c-1.1 0-2 0.9-2 2v8c0 1.1 0.9 2 2 2h12c1.1 0 2-0.9 2-2v-8c0-1.1-0.9-2-2-2zM6 2h4v2h-4v-2zM12 11h-3v3h-2v-3h-3v-2h3v-3h2v3h3v2z"></path>
</symbol>
<symbol id="icon-target" viewBox="0 0 16 16">
<path d="M16 7h-1.577c-0.432-2.785-2.638-4.991-5.423-5.423v-1.577h-2v1.577c-2.785 0.432-4.991 2.638-5.423 5.423h-1.577v2h1.577c0.432 2.785 2.638 4.991 5.423 5.423v1.577h2v-1.577c2.785-0.432 4.991-2.638 5.423-5.423h1.577v-2zM12.388 7h-1.559c-0.301-0.852-0.977-1.528-1.829-1.829v-1.559c1.68 0.383 3.005 1.708 3.388 3.388zM8 9c-0.552 0-1-0.448-1-1s0.448-1 1-1c0.552 0 1 0.448 1 1s-0.448 1-1 1zM7 3.612v1.559c-0.852 0.301-1.528 0.977-1.829 1.829h-1.559c0.383-1.68 1.708-3.005 3.388-3.388zM3.612 9h1.559c0.301 0.852 0.977 1.528 1.829 1.829v1.559c-1.68-0.383-3.005-1.708-3.388-3.388zM9 12.388v-1.559c0.852-0.301 1.528-0.977 1.829-1.829h1.559c-0.383 1.68-1.708 3.005-3.388 3.388z"></path>
</symbol>
<symbol id="icon-flattr" viewBox="0 0 16 16">
<path d="M5.743 0c-3.802 0-5.743 2.19-5.743 6.279v0 8.579l3.725-3.729v-4.358c0-1.694 0.449-2.772 1.955-3.014v0c0.526-0.103 1.621-0.067 2.317-0.067v0 2.587c0 0.024 0.003 0.066 0.009 0.087v0c0.029 0.105 0.124 0.181 0.236 0.182v0c0.063 0 0.123-0.033 0.184-0.093v0l6.455-6.453-9.139-0.001zM12.275 4.871v4.358c0 1.694-0.449 2.772-1.955 3.014v0c-0.526 0.103-1.621 0.067-2.317 0.067v0-2.587c0-0.023-0.003-0.066-0.009-0.087v0c-0.029-0.105-0.124-0.182-0.236-0.182v0c-0.064-0-0.123 0.033-0.184 0.093v0l-6.455 6.453 9.139 0.001c3.802 0 5.743-2.19 5.743-6.279v0-8.579l-3.725 3.729z"></path>
</symbol>
<symbol id="icon-world1" viewBox="0 0 24 24">
<path d="M12 2c-4.971 0-9 4.029-9 9s4.029 9 9 9 9-4.029 9-9-4.029-9-9-9zM14 4c0 1-0.5 2-1.5 2s-1.5 1-1.5 2 0 3 0 3 1 0 1-3c0-0.553 0.447-1 1-1s1 0.447 1 1v3c-0.552 0-1 0.448-1 1s0.448 1 1 1c0.553 0 1-0.448 1-1h1v-2l1 1-1 1c0 3 0 3-2 4 0-1-1-1-3-1v-2l-2-2v-2c-1 0-1 1-1 1l-2.951-2.951c0.11-0.192 0.225-0.382 0.35-0.564l0.523-0.678c1.468-1.716 3.644-2.807 6.078-2.807 0.691 0 1.359 0.098 2 0.262v0.738z"></path>
</symbol>
<symbol id="icon-search" viewBox="0 0 24 24">
<path d="M16.041 15.856c-0.034 0.026-0.067 0.055-0.099 0.087s-0.060 0.064-0.087 0.099c-1.258 1.213-2.969 1.958-4.855 1.958-1.933 0-3.682-0.782-4.95-2.050s-2.050-3.017-2.050-4.95 0.782-3.682 2.050-4.95 3.017-2.050 4.95-2.050 3.682 0.782 4.95 2.050 2.050 3.017 2.050 4.95c0 1.886-0.745 3.597-1.959 4.856zM21.707 20.293l-3.675-3.675c1.231-1.54 1.968-3.493 1.968-5.618 0-2.485-1.008-4.736-2.636-6.364s-3.879-2.636-6.364-2.636-4.736 1.008-6.364 2.636-2.636 3.879-2.636 6.364 1.008 4.736 2.636 6.364 3.879 2.636 6.364 2.636c2.125 0 4.078-0.737 5.618-1.968l3.675 3.675c0.391 0.391 1.024 0.391 1.414 0s0.391-1.024 0-1.414z"></path>
</symbol>
<symbol id="icon-location_city" viewBox="0 0 24 24">
<path d="M18.984 15v-2.016h-1.969v2.016h1.969zM18.984 18.984v-1.969h-1.969v1.969h1.969zM12.984 6.984v-1.969h-1.969v1.969h1.969zM12.984 11.016v-2.016h-1.969v2.016h1.969zM12.984 15v-2.016h-1.969v2.016h1.969zM12.984 18.984v-1.969h-1.969v1.969h1.969zM6.984 11.016v-2.016h-1.969v2.016h1.969zM6.984 15v-2.016h-1.969v2.016h1.969zM6.984 18.984v-1.969h-1.969v1.969h1.969zM15 11.016h6v9.984h-18v-14.016h6v-1.969l3-3 3 3v6z"></path>
</symbol>
<symbol id="icon-business_center" viewBox="0 0 24 24">
<path d="M14.016 6.984v-1.969h-4.031v1.969h4.031zM20.016 6.984q0.797 0 1.383 0.609t0.586 1.406v3q0 0.797-0.586 1.406t-1.383 0.609h-6v-2.016h-4.031v2.016h-6q-0.844 0-1.406-0.586t-0.563-1.43v-3q0-0.797 0.586-1.406t1.383-0.609h3.984v-1.969l2.016-2.016h3.984l2.016 2.016v1.969h4.031zM9.984 15.984h4.031v-0.984h6.984v3.984q0 0.844-0.586 1.43t-1.43 0.586h-13.969q-0.844 0-1.43-0.586t-0.586-1.43v-3.984h6.984v0.984z"></path>
</symbol>
<symbol id="icon-keyboard_arrow_down" viewBox="0 0 24 24">
<path d="M7.406 8.578l4.594 4.594 4.594-4.594 1.406 1.406-6 6-6-6z"></path>
</symbol>
<symbol id="icon-mic" viewBox="0 0 24 24">
<path d="M17.297 11.016h1.688q0 2.531-1.758 4.43t-4.242 2.273v3.281h-1.969v-3.281q-2.484-0.375-4.242-2.273t-1.758-4.43h1.688q0 2.203 1.57 3.633t3.727 1.43 3.727-1.43 1.57-3.633zM12 14.016q-1.219 0-2.109-0.891t-0.891-2.109v-6q0-1.219 0.891-2.109t2.109-0.891 2.109 0.891 0.891 2.109v6q0 1.219-0.891 2.109t-2.109 0.891z"></path>
</symbol>
<symbol id="icon-keyboard_arrow_up" viewBox="0 0 24 24">
<path d="M7.406 15.422l-1.406-1.406 6-6 6 6-1.406 1.406-4.594-4.594z"></path>
</symbol>
<symbol id="icon-keyboard_arrow_right" viewBox="0 0 24 24">
<path d="M8.578 16.594l4.594-4.594-4.594-4.594 1.406-1.406 6 6-6 6z"></path>
</symbol>
<symbol id="icon-keyboard_arrow_left" viewBox="0 0 24 24">
<path d="M15.422 16.594l-1.406 1.406-6-6 6-6 1.406 1.406-4.594 4.594z"></path>
</symbol>
<symbol id="icon-arrow_drop_down" viewBox="0 0 24 24">
<path d="M6.984 9.984h10.031l-5.016 5.016z"></path>
</symbol>
<symbol id="icon-checkmark-outline" viewBox="0 0 20 20">
<path d="M2.93 17.070c-1.884-1.821-3.053-4.37-3.053-7.193 0-5.523 4.477-10 10-10 2.823 0 5.372 1.169 7.19 3.050l0.003 0.003c1.737 1.796 2.807 4.247 2.807 6.947 0 5.523-4.477 10-10 10-2.7 0-5.151-1.070-6.95-2.81l0.003 0.003zM15.66 15.66c1.449-1.449 2.344-3.45 2.344-5.66 0-4.421-3.584-8.004-8.004-8.004-2.21 0-4.211 0.896-5.66 2.344v0c-1.449 1.449-2.344 3.45-2.344 5.66 0 4.421 3.584 8.004 8.004 8.004 2.21 0 4.211-0.896 5.66-2.344v0zM6.7 9.29l2.3 2.31 4.3-4.3 1.4 1.42-5.7 5.68-3.7-3.7 1.4-1.42z"></path>
</symbol>
<symbol id="icon-warning" viewBox="0 0 20 20">
<path d="M19.511 17.98l-8.907-16.632c-0.124-0.215-0.354-0.348-0.604-0.348s-0.481 0.133-0.604 0.348l-8.906 16.632c-0.121 0.211-0.119 0.471 0.005 0.68 0.125 0.211 0.352 0.34 0.598 0.34h17.814c0.245 0 0.474-0.129 0.598-0.34 0.124-0.209 0.126-0.469 0.006-0.68zM11 17h-2v-2h2v2zM11 13.5h-2v-6.5h2v6.5z"></path>
</symbol>
<symbol id="icon-archive" viewBox="0 0 20 20">
<path d="M13.981 2h-7.963c0 0-0.996 0-0.996 1h9.955c0-1-0.996-1-0.996-1zM16.968 5c0-1-0.995-1-0.995-1h-11.946c0 0-0.995 0-0.995 1v1h13.936v-1zM18.958 6c-0.588-0.592-0.588-0.592-0.588-0.592v1.592h-16.74v-1.592c0 0 0 0-0.589 0.592s-1.011 0.75-0.774 2c0.236 1.246 1.379 8.076 1.549 9 0.186 1.014 1.217 1 1.217 1h13.936c0 0 1.030 0.014 1.217-1 0.17-0.924 1.312-7.754 1.549-9 0.235-1.25-0.187-1.408-0.777-2zM14 11.997c0 0.554-0.449 1.003-1.003 1.003h-5.994c-0.554 0-1.003-0.449-1.003-1.003v-1.997h1v2h6v-2h1v1.997z"></path>
</symbol>
<symbol id="icon-battery" viewBox="0 0 20 20">
<path d="M15.408 10c0-2.766 1.277-4.32 2.277-4.32 0.363 0 1.315 0 1.315 0-0.668-1.059-1.221-1.68-3.658-1.68h-10.008c-3.734 0-5.334 3.441-5.334 6s1.6 6 5.334 6h10.008c2.438 0 2.99-0.621 3.658-1.68 0 0-0.315 0-1.315 0s-2.277-1.554-2.277-4.32zM12.688 11.795c-0.164 0.25-0.676 0.016-0.676 0.016l-2.957-1.338c0 0-0.264 0.67-0.467 1.141-0.205 0.471-0.361 1.004-1.209 0.408-0.849-0.598-3.581-3.25-3.581-3.25s-0.345-0.284-0.173-0.551c0.163-0.252 0.676-0.016 0.676-0.016l2.956 1.336c0 0 0.265-0.668 0.468-1.139 0.205-0.47 0.361-1.006 1.209-0.408 0.849 0.596 3.58 3.25 3.58 3.25s0.345 0.283 0.174 0.551zM18.874 7.928h-0.749c-0.559 0-1.105 0.754-1.105 1.979 0 1.227 0.547 1.98 1.105 1.98h0.749c0.56 0 1.126-0.754 1.126-1.98s-0.566-1.979-1.126-1.979z"></path>
</symbol>
<symbol id="icon-export" viewBox="0 0 20 20">
<path d="M15 15h-13v-9h2.595c0 0 0.689-0.896 2.17-2h-5.765c-0.553 0-1 0.449-1 1v11c0 0.553 0.447 1 1 1h15c0.553 0 1-0.447 1-1v-3.746l-2 1.645v1.101zM13.361 8.050v3.551l6.639-5.201-6.639-4.999v3.131c-8.061 0-8.061 7.968-8.061 7.968 2.282-3.748 3.686-4.45 8.061-4.45z"></path>
</symbol>
<symbol id="icon-eye" viewBox="0 0 20 20">
<path d="M10 4.4c-6.561 0-10 4.832-10 5.6 0 0.766 3.439 5.6 10 5.6s10-4.834 10-5.6c0-0.768-3.44-5.6-10-5.6zM10 14.307c-2.455 0-4.445-1.928-4.445-4.307s1.99-4.309 4.445-4.309c2.455 0 4.444 1.93 4.444 4.309s-1.989 4.307-4.444 4.307zM10 10c-0.407-0.447 0.663-2.154 0-2.154-1.228 0-2.223 0.965-2.223 2.154s0.995 2.154 2.223 2.154c1.227 0 2.223-0.965 2.223-2.154 0-0.547-1.877 0.379-2.223 0z"></path>
</symbol>
<symbol id="icon-flag" viewBox="0 0 20 20">
<path d="M18.926 5.584c-9.339 13.568-6.142-0.26-14.037 6.357l1.795 7.059h-2.019l-3.665-14.41 1.85-0.664c8.849-6.471 4.228 5.82 15.637 1.254 0.364-0.147 0.655 0.090 0.439 0.404z"></path>
</symbol>
<symbol id="icon-menu" viewBox="0 0 20 20">
<path d="M16.4 9h-12.8c-0.552 0-0.6 0.447-0.6 1s0.048 1 0.6 1h12.8c0.552 0 0.6-0.447 0.6-1s-0.048-1-0.6-1zM16.4 13h-12.8c-0.552 0-0.6 0.447-0.6 1s0.048 1 0.6 1h12.8c0.552 0 0.6-0.447 0.6-1s-0.048-1-0.6-1zM3.6 7h12.8c0.552 0 0.6-0.447 0.6-1s-0.048-1-0.6-1h-12.8c-0.552 0-0.6 0.447-0.6 1s0.048 1 0.6 1z"></path>
</symbol>
<symbol id="icon-moon" viewBox="0 0 20 20">
<path d="M13.719 1.8c0.686 0.385 1.332 0.867 1.916 1.449 3.42 3.422 3.42 8.966 0 12.386s-8.965 3.42-12.386 0c-0.583-0.584-1.065-1.231-1.449-1.916 3.335 1.867 7.633 1.387 10.469-1.449s3.318-7.134 1.45-10.47z"></path>
</symbol>
<symbol id="icon-star-outlined" viewBox="0 0 20 20">
<path d="M18.8 8.022h-6.413l-2.387-6.722-2.389 6.722h-6.412l5.232 3.947-1.871 6.929 5.44-4.154 5.438 4.154-1.869-6.929 5.231-3.947zM10 12.783l-3.014 2.5 1.243-3.562-2.851-2.3 3.522 0.101 1.1-4.040 1.099 4.040 3.521-0.101-2.851 2.3 1.243 3.562-3.012-2.5z"></path>
</symbol>
</defs>
</svg>
